<svg width="565" height="184" viewBox="0 0 565 184" fill="none" xmlns="http://www.w3.org/2000/svg">
<path d="M44.1728 21.1216C42.7844 19.3711 40.8845 18.0948 38.4731 17.2925C36.1347 16.4173 33.906 15.9797 31.7869 15.9797C30.5446 15.9797 29.2658 16.1255 27.9505 16.4173C26.6352 16.709 25.393 17.1831 24.2238 17.8395C23.0546 18.423 22.1047 19.2253 21.3739 20.2463C20.6432 21.2674 20.2778 22.5073 20.2778 23.966C20.2778 26.2999 21.1547 28.0868 22.9085 29.3267C24.6622 30.5666 26.8544 31.6242 29.4851 32.4994C32.1888 33.3746 35.0752 34.2498 38.1442 35.1251C41.2133 36.0003 44.0632 37.2402 46.6938 38.8447C49.3975 40.4493 51.6262 42.6009 53.38 45.2995C55.1338 47.9981 56.0106 51.6084 56.0106 56.1303C56.0106 60.4335 55.2068 64.1896 53.5992 67.3988C51.9916 70.6079 49.7994 73.27 47.0226 75.3852C44.3189 77.5003 41.1402 79.0684 37.4866 80.0895C33.906 81.1105 30.1062 81.6211 26.0871 81.6211C21.0451 81.6211 16.3684 80.8553 12.0571 79.3236C7.74576 77.792 3.72674 75.3122 0 71.8843L12.1667 58.5372C13.9205 60.8711 16.1126 62.6945 18.7433 64.0073C21.447 65.2472 24.2238 65.8671 27.0736 65.8671C28.462 65.8671 29.8504 65.7213 31.2388 65.4295C32.7003 65.0649 33.9791 64.5543 35.0752 63.8979C36.2443 63.2415 37.1577 62.4027 37.8154 61.3816C38.5461 60.3606 38.9115 59.1571 38.9115 57.7714C38.9115 55.4375 37.9981 53.6141 36.1713 52.3013C34.4175 50.9155 32.1888 49.7485 29.4851 48.8004C26.7813 47.8522 23.8584 46.9041 20.7163 45.9559C17.5741 45.0078 14.6512 43.7314 11.9475 42.1268C9.24377 40.5223 6.97849 38.4071 5.15166 35.7815C3.39791 33.1558 2.52103 29.6914 2.52103 25.3883C2.52103 21.231 3.32483 17.5842 4.93244 14.448C6.61313 11.3118 8.80533 8.68616 11.509 6.57104C14.2858 4.45593 17.4645 2.88783 21.0451 1.86674C24.6257 0.772719 28.3159 0.225708 32.1157 0.225708C36.5001 0.225708 40.7383 0.845653 44.8304 2.08554C48.9225 3.32544 52.6127 5.40409 55.901 8.32149L44.1728 21.1216Z" fill="url(#paint0_linear_11_757)"/>
<path d="M97.3575 88.2946C96.2614 91.1391 95.2019 93.6554 94.1788 95.8434C93.1558 98.0314 91.8405 99.8548 90.2329 101.314C88.6983 102.845 86.7254 103.976 84.314 104.705C81.9025 105.507 78.7239 105.908 74.7779 105.908C70.5396 105.908 66.4475 105.252 62.5016 103.939L64.6938 90.4827C67.1783 91.5767 69.7358 92.1237 72.3665 92.1237C74.1933 92.1237 75.6913 91.9049 76.8605 91.4673C78.0297 91.1026 78.9796 90.5191 79.7103 89.7169C80.5142 88.9875 81.1718 88.0758 81.6833 86.9818C82.1948 85.8878 82.7429 84.6114 83.3275 83.1527L84.5332 80.0895L61.1863 26.4823H78.9431L92.6443 61.6004H92.8635L104.592 26.4823H121.472L97.3575 88.2946Z" fill="url(#paint1_linear_11_757)"/>
<path d="M127.573 26.4823H143.357V33.7028H143.576C144.088 32.6818 144.818 31.6607 145.768 30.6396C146.718 29.6185 147.851 28.7068 149.166 27.9045C150.481 27.1022 151.979 26.4458 153.66 25.9353C155.341 25.4247 157.168 25.1695 159.141 25.1695C162.867 25.1695 166.156 25.9353 169.006 27.4669C171.928 28.9985 174.121 31.4054 175.582 34.6875C177.482 31.2595 179.784 28.8162 182.488 27.3575C185.191 25.8988 188.516 25.1695 192.462 25.1695C196.043 25.1695 199.039 25.7894 201.45 27.0293C203.935 28.1963 205.871 29.8373 207.259 31.9524C208.721 33.9946 209.744 36.4379 210.328 39.2824C210.986 42.0539 211.315 45.0442 211.315 48.2534V79.6518H194.873V48.691C194.873 46.2112 194.325 44.0961 193.229 42.3456C192.206 40.5223 190.343 39.6106 187.639 39.6106C185.739 39.6106 184.132 39.9388 182.816 40.5952C181.574 41.1787 180.551 42.0174 179.747 43.1114C179.017 44.2055 178.469 45.4818 178.103 46.9405C177.811 48.3992 177.665 49.9309 177.665 51.5354V79.6518H161.223V51.5354C161.223 50.5873 161.187 49.4203 161.114 48.0346C161.041 46.6488 160.785 45.336 160.346 44.0961C159.908 42.8562 159.177 41.7986 158.154 40.9234C157.204 40.0482 155.779 39.6106 153.879 39.6106C151.76 39.6106 150.043 40.0117 148.728 40.814C147.412 41.5433 146.389 42.5644 145.659 43.8773C145.001 45.1172 144.563 46.5394 144.343 48.144C144.124 49.7485 144.015 51.426 144.015 53.1765V79.6518H127.573V26.4823Z" fill="url(#paint2_linear_11_757)"/>
<path d="M224.481 26.4823H239.607V33.484H239.826C240.484 32.5359 241.324 31.5877 242.347 30.6396C243.443 29.6185 244.686 28.7068 246.074 27.9045C247.536 27.1022 249.107 26.4458 250.787 25.9353C252.468 25.4247 254.258 25.1695 256.158 25.1695C260.104 25.1695 263.685 25.8623 266.9 27.2481C270.115 28.5609 272.855 30.4572 275.121 32.937C277.459 35.3439 279.249 38.2248 280.492 41.5798C281.734 44.9348 282.355 48.618 282.355 52.6295C282.355 56.3491 281.77 59.9229 280.601 63.3509C279.505 66.7059 277.898 69.6962 275.778 72.3219C273.732 74.9475 271.211 77.0627 268.215 78.6672C265.219 80.1989 261.821 80.9647 258.022 80.9647C254.587 80.9647 251.372 80.4541 248.376 79.433C245.453 78.339 243.042 76.5156 241.142 73.9629H240.922V104.596H224.481V26.4823ZM239.607 53.0671C239.607 57.0785 240.74 60.3241 243.005 62.8039C245.343 65.2837 248.595 66.5236 252.76 66.5236C256.926 66.5236 260.141 65.2837 262.406 62.8039C264.744 60.3241 265.914 57.0785 265.914 53.0671C265.914 49.0556 264.744 45.81 262.406 43.3302C260.141 40.8505 256.926 39.6106 252.76 39.6106C248.595 39.6106 245.343 40.8505 243.005 43.3302C240.74 45.81 239.607 49.0556 239.607 53.0671Z" fill="url(#paint3_linear_11_757)"/>
<path d="M328.269 39.6106H313.8V57.3338C313.8 58.7925 313.873 60.1418 314.019 61.3816C314.166 62.5486 314.494 63.5697 315.006 64.4449C315.517 65.3201 316.285 66.013 317.308 66.5236C318.404 66.9612 319.829 67.18 321.582 67.18C322.459 67.18 323.592 67.107 324.98 66.9612C326.442 66.7424 327.538 66.3048 328.269 65.6483V79.3236C326.442 79.9801 324.542 80.4177 322.569 80.6365C320.596 80.8553 318.66 80.9647 316.76 80.9647C313.983 80.9647 311.425 80.6729 309.087 80.0895C306.749 79.506 304.703 78.5943 302.949 77.3544C301.195 76.0416 299.807 74.3641 298.784 72.3219C297.834 70.2797 297.359 67.7999 297.359 64.8825V39.6106H286.836V26.4823H297.359V10.7283H313.8V26.4823H328.269V39.6106Z" fill="url(#paint4_linear_11_757)"/>
<path d="M334.651 53.0671C334.651 48.8368 335.418 45.0078 336.953 41.5798C338.487 38.1519 340.57 35.2345 343.2 32.8276C345.904 30.3478 349.046 28.4515 352.627 27.1387C356.281 25.8259 360.153 25.1695 364.246 25.1695C368.338 25.1695 372.174 25.8259 375.755 27.1387C379.408 28.4515 382.55 30.3478 385.181 32.8276C387.885 35.2345 390.004 38.1519 391.538 41.5798C393.073 45.0078 393.84 48.8368 393.84 53.0671C393.84 57.2973 393.073 61.1264 391.538 64.5543C390.004 67.9823 387.885 70.9361 385.181 73.4159C382.55 75.8228 379.408 77.6826 375.755 78.9954C372.174 80.3083 368.338 80.9647 364.246 80.9647C360.153 80.9647 356.281 80.3083 352.627 78.9954C349.046 77.6826 345.904 75.8228 343.2 73.4159C340.57 70.9361 338.487 67.9823 336.953 64.5543C335.418 61.1264 334.651 57.2973 334.651 53.0671ZM351.092 53.0671C351.092 57.0785 352.225 60.3241 354.49 62.8039C356.829 65.2837 360.08 66.5236 364.246 66.5236C368.411 66.5236 371.626 65.2837 373.891 62.8039C376.23 60.3241 377.399 57.0785 377.399 53.0671C377.399 49.0556 376.23 45.81 373.891 43.3302C371.626 40.8505 368.411 39.6106 364.246 39.6106C360.08 39.6106 356.829 40.8505 354.49 43.3302C352.225 45.81 351.092 49.0556 351.092 53.0671Z" fill="url(#paint5_linear_11_757)"/>
<path d="M403.524 26.4823H419.308V33.7028H419.527C420.039 32.6818 420.77 31.6607 421.72 30.6396C422.67 29.6185 423.802 28.7068 425.118 27.9045C426.433 27.1022 427.931 26.4458 429.612 25.9353C431.292 25.4247 433.119 25.1695 435.092 25.1695C438.819 25.1695 442.107 25.9353 444.957 27.4669C447.88 28.9985 450.072 31.4054 451.534 34.6875C453.433 31.2595 455.735 28.8162 458.439 27.3575C461.143 25.8988 464.467 25.1695 468.413 25.1695C471.994 25.1695 474.99 25.7894 477.401 27.0293C479.886 28.1963 481.822 29.8373 483.211 31.9524C484.672 33.9946 485.695 36.4379 486.28 39.2824C486.938 42.0539 487.266 45.0442 487.266 48.2534V79.6518H470.825V48.691C470.825 46.2112 470.277 44.0961 469.181 42.3456C468.158 40.5223 466.294 39.6106 463.591 39.6106C461.691 39.6106 460.083 39.9388 458.768 40.5952C457.526 41.1787 456.503 42.0174 455.699 43.1114C454.968 44.2055 454.42 45.4818 454.055 46.9405C453.762 48.3992 453.616 49.9309 453.616 51.5354V79.6518H437.175V51.5354C437.175 50.5873 437.138 49.4203 437.065 48.0346C436.992 46.6488 436.736 45.336 436.298 44.0961C435.859 42.8562 435.129 41.7986 434.106 40.9234C433.156 40.0482 431.731 39.6106 429.831 39.6106C427.712 39.6106 425.994 40.0117 424.679 40.814C423.364 41.5433 422.341 42.5644 421.61 43.8773C420.952 45.1172 420.514 46.5394 420.295 48.144C420.076 49.7485 419.966 51.426 419.966 53.1765V79.6518H403.524V26.4823Z" fill="url(#paint6_linear_11_757)"/>
<path d="M202.705 124.434C201.024 122.392 198.942 120.824 196.457 119.73C194.046 118.636 191.233 118.089 188.017 118.089C184.802 118.089 181.806 118.709 179.029 119.948C176.326 121.188 173.951 122.939 171.905 125.2C169.932 127.388 168.361 130.013 167.192 133.077C166.095 136.14 165.547 139.458 165.547 143.032C165.547 146.679 166.095 150.034 167.192 153.097C168.361 156.088 169.932 158.713 171.905 160.974C173.878 163.162 176.18 164.876 178.81 166.116C181.514 167.356 184.4 167.976 187.469 167.976C190.977 167.976 194.083 167.247 196.786 165.788C199.49 164.329 201.719 162.287 203.472 159.661L217.722 170.273C214.433 174.868 210.268 178.26 205.226 180.448C200.184 182.636 194.996 183.73 189.662 183.73C183.597 183.73 178.006 182.782 172.891 180.886C167.776 178.989 163.355 176.291 159.628 172.79C155.902 169.216 152.979 164.913 150.86 159.88C148.814 154.848 147.791 149.232 147.791 143.032C147.791 136.833 148.814 131.217 150.86 126.184C152.979 121.152 155.902 116.885 159.628 113.384C163.355 109.81 167.776 107.075 172.891 105.179C178.006 103.283 183.597 102.335 189.662 102.335C191.854 102.335 194.119 102.553 196.457 102.991C198.869 103.356 201.207 103.976 203.472 104.851C205.811 105.726 208.04 106.893 210.159 108.352C212.278 109.81 214.178 111.597 215.858 113.712L202.705 124.434Z" fill="url(#paint7_linear_11_757)"/>
<path d="M240.886 99.0525V135.812H241.105C241.47 134.791 242.092 133.77 242.969 132.748C243.845 131.727 244.905 130.816 246.147 130.013C247.389 129.211 248.851 128.555 250.532 128.044C252.212 127.534 254.039 127.278 256.012 127.278C260.177 127.278 263.539 127.935 266.096 129.248C268.654 130.487 270.627 132.238 272.015 134.499C273.477 136.76 274.463 139.422 274.975 142.485C275.486 145.549 275.742 148.867 275.742 152.441V181.761H259.3V155.723C259.3 154.191 259.227 152.623 259.081 151.019C259.008 149.341 258.679 147.81 258.095 146.424C257.583 145.038 256.743 143.908 255.574 143.032C254.478 142.157 252.87 141.719 250.751 141.719C248.632 141.719 246.914 142.121 245.599 142.923C244.284 143.652 243.261 144.673 242.53 145.986C241.872 147.226 241.434 148.648 241.215 150.253C240.995 151.857 240.886 153.535 240.886 155.285V181.761H224.444V99.0525H240.886Z" fill="url(#paint8_linear_11_757)"/>
<path d="M338.269 172.571C335.639 175.926 332.314 178.515 328.295 180.339C324.276 182.162 320.111 183.074 315.799 183.074C311.707 183.074 307.834 182.417 304.181 181.104C300.6 179.791 297.458 177.932 294.754 175.525C292.124 173.045 290.041 170.091 288.507 166.663C286.972 163.235 286.205 159.406 286.205 155.176C286.205 150.946 286.972 147.117 288.507 143.689C290.041 140.261 292.124 137.343 294.754 134.937C297.458 132.457 300.6 130.56 304.181 129.248C307.834 127.935 311.707 127.278 315.799 127.278C319.599 127.278 323.034 127.935 326.103 129.248C329.245 130.56 331.876 132.457 333.995 134.937C336.187 137.343 337.868 140.261 339.037 143.689C340.206 147.117 340.79 150.946 340.79 155.176V160.318H302.646C303.304 163.454 304.729 165.97 306.921 167.867C309.113 169.69 311.817 170.602 315.032 170.602C317.736 170.602 320.001 170.018 321.828 168.851C323.728 167.611 325.372 166.043 326.76 164.147L338.269 172.571ZM324.349 149.159C324.422 146.387 323.509 144.017 321.609 142.048C319.709 140.078 317.261 139.094 314.265 139.094C312.438 139.094 310.83 139.386 309.442 139.969C308.054 140.553 306.848 141.318 305.825 142.266C304.875 143.142 304.108 144.199 303.523 145.439C303.012 146.606 302.719 147.846 302.646 149.159H324.349Z" fill="url(#paint9_linear_11_757)"/>
<path d="M386.851 145.767C386.047 144.6 384.914 143.652 383.453 142.923C381.991 142.121 380.42 141.719 378.739 141.719C374.574 141.719 371.323 142.959 368.984 145.439C366.719 147.919 365.586 151.165 365.586 155.176C365.586 159.187 366.719 162.433 368.984 164.913C371.323 167.393 374.574 168.632 378.739 168.632C380.566 168.632 382.137 168.231 383.453 167.429C384.768 166.627 385.901 165.679 386.851 164.585L397.702 175.962C395.144 178.588 392.112 180.448 388.604 181.542C385.17 182.563 381.882 183.074 378.739 183.074C374.647 183.074 370.774 182.417 367.121 181.104C363.54 179.791 360.398 177.932 357.694 175.525C355.064 173.045 352.981 170.091 351.447 166.663C349.912 163.235 349.145 159.406 349.145 155.176C349.145 150.946 349.912 147.117 351.447 143.689C352.981 140.261 355.064 137.343 357.694 134.937C360.398 132.457 363.54 130.56 367.121 129.248C370.774 127.935 374.647 127.278 378.739 127.278C381.882 127.278 385.17 127.825 388.604 128.919C392.112 129.94 395.144 131.764 397.702 134.39L386.851 145.767Z" fill="url(#paint10_linear_11_757)"/>
<path d="M403.667 99.0525H420.109V149.596L438.304 128.591H458.472L437.317 152.55L459.02 181.761H438.304L420.328 154.848H420.109V181.761H403.667V99.0525Z" fill="url(#paint11_linear_11_757)"/>
<path d="M514.994 172.571C512.363 175.926 509.038 178.515 505.019 180.339C501 182.162 496.835 183.074 492.524 183.074C488.432 183.074 484.559 182.417 480.905 181.104C477.325 179.791 474.183 177.932 471.479 175.525C468.848 173.045 466.766 170.091 465.231 166.663C463.697 163.235 462.929 159.406 462.929 155.176C462.929 150.946 463.697 147.117 465.231 143.689C466.766 140.261 468.848 137.343 471.479 134.937C474.183 132.457 477.325 130.56 480.905 129.248C484.559 127.935 488.432 127.278 492.524 127.278C496.324 127.278 499.758 127.935 502.827 129.248C505.969 130.56 508.6 132.457 510.719 134.937C512.911 137.343 514.592 140.261 515.761 143.689C516.93 147.117 517.515 150.946 517.515 155.176V160.318H479.371C480.028 163.454 481.453 165.97 483.646 167.867C485.838 169.69 488.541 170.602 491.757 170.602C494.46 170.602 496.726 170.018 498.552 168.851C500.452 167.611 502.096 166.043 503.485 164.147L514.994 172.571ZM501.073 149.159C501.147 146.387 500.233 144.017 498.333 142.048C496.433 140.078 493.985 139.094 490.989 139.094C489.163 139.094 487.555 139.386 486.167 139.969C484.778 140.553 483.572 141.318 482.549 142.266C481.599 143.142 480.832 144.199 480.248 145.439C479.736 146.606 479.444 147.846 479.371 149.159H501.073Z" fill="url(#paint12_linear_11_757)"/>
<path d="M527.513 128.591H543.955V137.125H544.174C545.928 133.842 548.01 131.399 550.422 129.795C552.833 128.117 555.866 127.278 559.52 127.278C560.469 127.278 561.419 127.315 562.369 127.388C563.319 127.461 564.196 127.607 565 127.825V142.813C563.831 142.449 562.662 142.194 561.492 142.048C560.396 141.829 559.227 141.719 557.985 141.719C554.843 141.719 552.358 142.157 550.532 143.032C548.705 143.908 547.28 145.147 546.257 146.752C545.307 148.284 544.686 150.143 544.393 152.331C544.101 154.52 543.955 156.926 543.955 159.552V181.761H527.513V128.591Z" fill="url(#paint13_linear_11_757)"/>
<defs>
<linearGradient id="paint0_linear_11_757" x1="-255.254" y1="47.5353" x2="625.846" y2="63.9342" gradientUnits="userSpaceOnUse">
<stop stop-color="#001738"/>
<stop offset="1" stop-color="#A30134"/>
</linearGradient>
<linearGradient id="paint1_linear_11_757" x1="-255.254" y1="47.5353" x2="625.846" y2="63.9342" gradientUnits="userSpaceOnUse">
<stop stop-color="#001738"/>
<stop offset="1" stop-color="#A30134"/>
</linearGradient>
<linearGradient id="paint2_linear_11_757" x1="-255.254" y1="47.5353" x2="625.846" y2="63.9342" gradientUnits="userSpaceOnUse">
<stop stop-color="#001738"/>
<stop offset="1" stop-color="#A30134"/>
</linearGradient>
<linearGradient id="paint3_linear_11_757" x1="-255.254" y1="47.5353" x2="625.846" y2="63.9342" gradientUnits="userSpaceOnUse">
<stop stop-color="#001738"/>
<stop offset="1" stop-color="#A30134"/>
</linearGradient>
<linearGradient id="paint4_linear_11_757" x1="-255.254" y1="47.5353" x2="625.846" y2="63.9342" gradientUnits="userSpaceOnUse">
<stop stop-color="#001738"/>
<stop offset="1" stop-color="#A30134"/>
</linearGradient>
<linearGradient id="paint5_linear_11_757" x1="-255.254" y1="47.5353" x2="625.846" y2="63.9342" gradientUnits="userSpaceOnUse">
<stop stop-color="#001738"/>
<stop offset="1" stop-color="#A30134"/>
</linearGradient>
<linearGradient id="paint6_linear_11_757" x1="-255.254" y1="47.5353" x2="625.846" y2="63.9342" gradientUnits="userSpaceOnUse">
<stop stop-color="#001738"/>
<stop offset="1" stop-color="#A30134"/>
</linearGradient>
<linearGradient id="paint7_linear_11_757" x1="-255.254" y1="47.5353" x2="625.846" y2="63.9342" gradientUnits="userSpaceOnUse">
<stop stop-color="#001738"/>
<stop offset="1" stop-color="#A30134"/>
</linearGradient>
<linearGradient id="paint8_linear_11_757" x1="-255.254" y1="47.5353" x2="625.846" y2="63.9342" gradientUnits="userSpaceOnUse">
<stop stop-color="#001738"/>
<stop offset="1" stop-color="#A30134"/>
</linearGradient>
<linearGradient id="paint9_linear_11_757" x1="-255.254" y1="47.5353" x2="625.846" y2="63.9342" gradientUnits="userSpaceOnUse">
<stop stop-color="#001738"/>
<stop offset="1" stop-color="#A30134"/>
</linearGradient>
<linearGradient id="paint10_linear_11_757" x1="-255.254" y1="47.5353" x2="625.846" y2="63.9342" gradientUnits="userSpaceOnUse">
<stop stop-color="#001738"/>
<stop offset="1" stop-color="#A30134"/>
</linearGradient>
<linearGradient id="paint11_linear_11_757" x1="-255.254" y1="47.5353" x2="625.846" y2="63.9342" gradientUnits="userSpaceOnUse">
<stop stop-color="#001738"/>
<stop offset="1" stop-color="#A30134"/>
</linearGradient>
<linearGradient id="paint12_linear_11_757" x1="-255.254" y1="47.5353" x2="625.846" y2="63.9342" gradientUnits="userSpaceOnUse">
<stop stop-color="#001738"/>
<stop offset="1" stop-color="#A30134"/>
</linearGradient>
<linearGradient id="paint13_linear_11_757" x1="-255.254" y1="47.5353" x2="625.846" y2="63.9342" gradientUnits="userSpaceOnUse">
<stop stop-color="#001738"/>
<stop offset="1" stop-color="#A30134"/>
</linearGradient>
</defs>
</svg>
