<svg width="100" height="36" viewBox="0 0 100 36" fill="none" xmlns="http://www.w3.org/2000/svg">
<path fill-rule="evenodd" clip-rule="evenodd" d="M97.9788 14.8976V19.3908C97.9788 19.9645 97.692 20.2513 97.0228 20.2513H84.8813V14.802H83.6385V20.2513H81.4397V14.802H80.1968V20.2513H77.998V14.802H76.7552V20.2513H64.5181V17.0964C64.5181 16.714 64.4225 16.3316 64.3269 16.0448C64.2313 15.758 64.0401 15.5668 63.8489 15.3756C63.6577 15.1844 63.3709 15.0888 63.0841 14.9932C62.7973 14.8976 62.5105 14.8976 62.2237 14.8976C61.9369 14.8976 61.6501 14.8976 61.3633 14.9932C61.0765 15.0888 60.8853 15.1844 60.5985 15.3756C60.4073 15.5668 60.2161 15.758 60.0249 16.0448C59.9293 16.3316 59.8337 16.714 59.8337 17.192V20.4425H46.067V14.9932H43.5814C42.9121 14.9932 42.3385 15.1844 41.9561 15.5668C41.5737 15.9492 41.3825 16.5228 41.3825 17.192V19.3908C41.3825 19.7733 41.4781 20.1557 41.5737 20.4425C41.6693 20.7293 41.8605 21.0161 42.0517 21.1117C42.2429 21.3029 42.5297 21.3985 42.8165 21.4941C43.1033 21.5897 43.3901 21.5897 43.7726 21.5897H44.8242V21.9721C44.8242 22.3545 44.7286 22.6413 44.633 22.9281C44.5374 23.2149 44.3462 23.4061 44.0594 23.5017C43.8682 23.6929 43.5814 23.7885 43.1989 23.7885C42.9121 23.8841 42.5297 23.8841 42.1473 23.8841H42.0517H40.2353V25.0313H42.8165C43.3901 25.0313 43.8682 24.9357 44.3462 24.7445C44.7286 24.5533 45.111 24.3621 45.3022 24.0753C45.589 23.7885 45.7802 23.4061 45.8758 23.0237C45.9714 22.6413 46.067 22.1633 46.067 21.5897V21.3985H59.9293C60.0249 21.9721 60.3117 22.3545 60.6941 22.6413C61.0765 22.9281 61.6501 23.1193 62.2237 23.1193C62.5105 23.1193 62.7017 23.1193 62.9885 23.0237C63.2753 22.9281 63.4665 22.8325 63.6577 22.7369C63.8489 22.6413 64.0401 22.4501 64.1357 22.2589C64.3269 22.0677 64.4225 21.7809 64.4225 21.4941H96.9271C97.214 21.4941 97.5008 21.4941 97.7876 21.3985C98.0744 21.3029 98.2656 21.2073 98.4568 21.0161C98.648 20.8249 98.8392 20.6337 98.9348 20.3469C99.0304 20.0601 99.126 19.6776 99.126 19.2952V14.802H97.9788V14.8976ZM44.8242 20.3469H43.8682C43.677 20.3469 43.4858 20.3469 43.3901 20.3469C43.1989 20.3469 43.1033 20.2513 43.0077 20.2513C42.9121 20.1557 42.8165 20.0601 42.8165 19.9645C42.8165 19.8688 42.7209 19.6777 42.7209 19.3908V17.192C42.7209 16.8096 42.8165 16.6184 42.9121 16.4272C43.0077 16.236 43.2945 16.236 43.5814 16.236H44.8242V20.3469ZM63.2753 21.0161C63.2753 21.2073 63.2753 21.3985 63.1797 21.4941C63.0841 21.5897 63.0841 21.6853 62.8929 21.7809C62.7973 21.8765 62.7017 21.8765 62.5105 21.8765C62.4149 21.8765 62.2237 21.8765 62.1281 21.8765C62.0325 21.8765 61.8413 21.8765 61.7457 21.8765C61.6501 21.8765 61.4589 21.7809 61.3633 21.7809C61.2677 21.6853 61.1721 21.5897 61.0765 21.4941C60.9809 21.3985 60.9809 21.2073 60.9809 21.0161V17.0964C60.9809 16.9052 60.9809 16.714 61.0765 16.6184C61.1721 16.5228 61.1721 16.4272 61.2677 16.3316C61.3633 16.236 61.4589 16.236 61.6501 16.1404C61.7457 16.1404 61.9369 16.1404 62.0325 16.1404C62.2237 16.1404 62.3193 16.1404 62.5105 16.1404C62.6061 16.1404 62.7973 16.236 62.8929 16.3316C62.9885 16.4272 63.0841 16.5228 63.0841 16.6184C63.1797 16.714 63.1797 16.9052 63.1797 17.0964V21.0161H63.2753ZM95.9711 13.0811C96.0667 13.1767 96.1623 13.1767 96.2579 13.2723C96.3535 13.2723 96.4491 13.3679 96.5447 13.3679C96.6403 13.3679 96.7359 13.3679 96.8315 13.2723C96.9271 13.2723 97.0228 13.1767 97.1184 13.0811C97.214 12.9855 97.214 12.8899 97.3096 12.7943C97.3096 12.6987 97.4052 12.6031 97.4052 12.5075C97.4052 12.4119 97.4052 12.3163 97.3096 12.2207C97.3096 12.1251 97.214 12.0295 97.1184 11.9339C97.0228 11.8383 96.9271 11.8383 96.8315 11.7427C96.7359 11.7427 96.6403 11.6471 96.5447 11.6471C96.4491 11.6471 96.3535 11.6471 96.2579 11.7427C96.1623 11.7427 96.0667 11.8383 95.9711 11.9339C95.8755 12.0295 95.8755 12.1251 95.7799 12.2207C95.7799 12.3163 95.6843 12.4119 95.6843 12.5075C95.6843 12.6031 95.6843 12.6987 95.7799 12.7943C95.8755 12.8899 95.9711 12.9855 95.9711 13.0811ZM97.9788 13.0811C98.0744 13.1767 98.17 13.1767 98.2656 13.2723C98.3612 13.2723 98.4568 13.3679 98.5524 13.3679C98.648 13.3679 98.7436 13.3679 98.8392 13.2723C98.9348 13.2723 99.0304 13.1767 99.0304 13.0811C99.126 12.9855 99.126 12.8899 99.2216 12.7943C99.2216 12.6987 99.3172 12.6031 99.3172 12.5075C99.3172 12.3163 99.2216 12.1251 99.126 11.9339C99.0304 11.7427 98.8392 11.7427 98.648 11.7427C98.4568 11.7427 98.2656 11.8383 98.0744 11.9339C97.9788 12.1251 97.8832 12.3163 97.8832 12.5075C97.8832 12.6031 97.8832 12.6987 97.9788 12.7943C97.7876 12.8899 97.8832 12.9855 97.9788 13.0811ZM97.8832 31.9147C97.8832 32.6795 97.4052 33.1575 96.7359 33.1575C96.0667 33.1575 95.5887 32.6795 95.5887 31.9147V27.517H94.3459V31.9147C94.3459 33.3487 95.3975 34.3047 96.7359 34.3047C98.0744 34.3047 99.126 33.3487 99.126 31.9147V27.517H97.8832V31.9147ZM84.1165 27.517L82.3957 31.1499L80.6748 27.517H79.432V34.3047H80.6748V30.385L81.9177 32.9663H82.7781L84.0209 30.385V34.3047H85.2637V27.517H84.1165ZM68.9158 30.2894L68.151 30.1938C67.8642 30.1938 67.673 30.0982 67.5774 29.907C67.4818 29.8114 67.3862 29.6202 67.3862 29.429C67.3862 28.951 67.673 28.5686 68.3422 28.5686C68.7246 28.5686 69.2982 28.6642 69.6806 29.0466L70.4455 28.1862C69.8718 27.6126 69.2026 27.4214 68.3422 27.4214C66.9082 27.4214 66.0478 28.2818 66.0478 29.429C66.0478 30.0026 66.239 30.385 66.5258 30.7675C66.8126 31.0543 67.195 31.2455 67.7686 31.3411L68.5334 31.4367C68.8202 31.4367 69.0114 31.5323 69.107 31.6279C69.2026 31.7235 69.2982 31.9147 69.2982 32.2015C69.2982 32.7751 68.9158 33.0619 68.151 33.0619C67.5774 33.0619 67.0038 32.9663 66.6214 32.4883L65.761 33.3487C66.4302 34.0179 67.0994 34.2091 68.151 34.2091C69.4894 34.2091 70.5411 33.4443 70.5411 32.2015C70.5411 31.6279 70.3499 31.1499 70.063 30.7675C69.8718 30.5763 69.4894 30.385 68.9158 30.2894ZM55.1492 29.5246L55.914 32.0103H54.2888L55.1492 29.5246ZM54.6712 27.517L52.2811 34.3047H53.6195L54.0019 33.1575H56.2964L56.6788 34.3047H58.0172L55.6272 27.517H54.6712ZM40.2353 27.517V28.6642H41.9561V34.2091H43.1989V28.6642H44.9198V27.517H40.2353Z" fill="black"/>
<path fill-rule="evenodd" clip-rule="evenodd" d="M1.6 36C2.44706 36 3.2 35.2299 3.2 34.3636V27.2406H8.28235H22.1176V32.631H15.4353C14.5882 32.631 13.8353 33.4011 13.8353 34.2674C13.8353 35.1337 14.4941 35.9037 15.4353 35.9037H32.2824C33.1294 35.9037 33.8824 35.1337 33.8824 34.2674V16.3636C33.8824 15.4011 33.1294 14.7273 32.2824 14.7273C31.4353 14.7273 30.6824 15.4973 30.6824 16.3636V23.4866H25.6V3.27273H32.2824C33.1294 3.27273 33.8824 2.50267 33.8824 1.63636C33.8824 0.673797 33.1294 0 32.2824 0H20.0471H1.6C0.752941 0 0 0.770053 0 1.63636V14.7273V34.3636C0.0941176 35.2299 0.752941 36 1.6 36ZM25.7882 27.2406H30.8706V32.631H25.7882V27.2406ZM11.8588 3.27273H22.1176V8.6631H11.8588V3.27273ZM11.8588 12.5134H22.1176V23.4866H11.8588V12.5134ZM3.2 3.27273H8.28235V8.6631H3.2V3.27273ZM3.2 21.2727V12.5134H8.28235V23.4866H3.2V21.2727Z" fill="black"/>
</svg>
