<svg width="55" height="47" viewBox="0 0 55 47" fill="none" xmlns="http://www.w3.org/2000/svg">
  <path fill-rule="evenodd" clip-rule="evenodd" d="M0 15.9774C0 28.004 9.01768 34.9417 16.6954 40.8485L16.6963 40.8492C17.494 41.4629 18.2772 42.0654 19.0343 42.6614C21.8731 44.896 24.6072 47 27.3413 47C30.0755 47 32.8096 44.896 35.6484 42.6614C36.4051 42.0657 37.188 41.4635 37.9852 40.8501L37.9873 40.8485C45.665 34.9417 54.6827 28.004 54.6827 15.9774C54.6827 3.7942 42.0194 -5.13769 30.4267 3.33682L35.7091 8.60961C36.51 9.40911 36.5103 10.7056 35.7096 11.5054C34.9089 12.3052 33.6106 12.3054 32.8096 11.5059L27.3413 6.04928C15.0382 -6.7147 0 2.70082 0 15.9774ZM15.16 11.0927C15.16 10.2077 14.4426 9.49039 13.5577 9.49039C12.6728 9.49039 11.9554 10.2077 11.9554 11.0927V13.7631H9.28497C8.40005 13.7631 7.68269 14.4805 7.68269 15.3654C7.68269 16.2503 8.40005 16.9677 9.28497 16.9677H11.9554V19.6381C11.9554 20.523 12.6728 21.2404 13.5577 21.2404C14.4426 21.2404 15.16 20.523 15.16 19.6381V16.9677H17.8304C18.7153 16.9677 19.4327 16.2503 19.4327 15.3654C19.4327 14.4805 18.7153 13.7631 17.8304 13.7631H15.16V11.0927Z" fill="#A30134">
    <animateTransform fill="freeze" attributeName="transform" begin="0s" dur="1.7s" repeatCount="indefinite" type="scale" values="1;0.95;1" />
  </path>
</svg>