<svg width="721" height="247" viewBox="0 0 721 247" fill="none" xmlns="http://www.w3.org/2000/svg">
<path d="M51.3454 160.475C42.8674 160.475 36.0583 167.284 36.0583 175.762C36.0583 184.24 42.9342 191.049 51.3454 191.049C53.5483 191.049 55.6845 190.582 57.5537 189.714C62.6938 187.444 66.3654 182.371 66.6325 176.43C66.6325 176.23 66.6325 175.963 66.6325 175.762C66.6325 167.351 59.7566 160.475 51.3454 160.475ZM51.6792 184.04C51.6124 184.04 51.4789 184.04 51.3454 184.04C46.806 184.04 43.1345 180.368 43.1345 175.762C43.1345 171.156 46.806 167.551 51.3454 167.551C54.8167 167.551 57.8207 169.754 59.0223 172.825C59.4228 173.76 59.6231 174.761 59.6231 175.829C59.5564 180.235 56.085 183.84 51.6792 184.04Z" fill="white"/>
<path d="M310.729 107.246C306.096 107.246 301.785 106.719 297.798 105.663C293.81 104.549 290.555 102.995 288.033 101.001C287.154 100.356 286.509 99.6814 286.098 98.9776C285.746 98.2152 285.57 97.2769 285.57 96.1627C285.57 94.6966 286.01 93.4064 286.89 92.2922C287.828 91.1779 288.884 90.6208 290.057 90.6208C290.702 90.6208 291.317 90.7381 291.904 90.9727C292.549 91.1486 293.311 91.5005 294.191 92.0283C296.713 93.6117 299.264 94.7845 301.844 95.5469C304.424 96.2507 307.269 96.6025 310.377 96.6025C314.247 96.6025 317.209 95.9574 319.261 94.6673C321.314 93.3771 322.34 91.5298 322.34 89.1254C322.34 87.3074 321.373 85.8413 319.437 84.7271C317.561 83.6128 314.189 82.5572 309.321 81.5603C303.867 80.446 299.498 79.0972 296.214 77.5138C292.989 75.9304 290.614 73.9658 289.089 71.6201C287.623 69.2743 286.89 66.43 286.89 63.0873C286.89 59.3927 287.945 56.0793 290.057 53.1471C292.226 50.1562 295.188 47.8398 298.941 46.1978C302.753 44.4971 307.034 43.6467 311.784 43.6467C320.112 43.6467 326.973 45.7286 332.368 49.8923C333.248 50.5961 333.864 51.3291 334.216 52.0915C334.626 52.7952 334.832 53.6749 334.832 54.7305C334.832 56.1966 334.362 57.4868 333.424 58.601C332.544 59.7153 331.518 60.2724 330.345 60.2724C329.7 60.2724 329.084 60.1844 328.498 60.0085C327.97 59.8326 327.208 59.4514 326.211 58.8649C323.806 57.3402 321.578 56.1966 319.525 55.4342C317.531 54.6719 314.98 54.2907 311.872 54.2907C308.295 54.2907 305.48 54.9944 303.427 56.4019C301.375 57.7507 300.349 59.6273 300.349 62.0317C300.349 63.4392 300.73 64.6121 301.492 65.5504C302.313 66.43 303.633 67.2217 305.451 67.9255C307.327 68.6292 309.966 69.3623 313.368 70.1246C321.343 71.884 327.061 74.1418 330.521 76.898C334.04 79.6543 335.799 83.4369 335.799 88.2457C335.799 91.9989 334.744 95.3123 332.632 98.1859C330.58 101.059 327.648 103.288 323.836 104.871C320.082 106.455 315.713 107.246 310.729 107.246Z" fill="url(#paint0_linear_2351_113)"/>
<path d="M373.238 66.1661C373.766 64.9346 374.499 64.0256 375.437 63.4392C376.434 62.8527 377.49 62.5595 378.604 62.5595C380.304 62.5595 381.8 63.1166 383.09 64.2309C384.38 65.2865 385.025 66.5766 385.025 68.1014C385.025 68.9224 384.82 69.7434 384.41 70.5645L360.747 119.122C360.16 120.353 359.368 121.262 358.371 121.849C357.375 122.494 356.319 122.817 355.205 122.817C353.563 122.817 352.126 122.289 350.894 121.233C349.663 120.178 349.047 118.887 349.047 117.363C349.047 116.424 349.252 115.545 349.663 114.724L355.469 102.672L339.811 70.5645C339.459 69.7434 339.283 68.9517 339.283 68.1894C339.283 66.606 339.957 65.2572 341.306 64.1429C342.713 63.0287 344.297 62.4715 346.056 62.4715C347.229 62.4715 348.314 62.7941 349.311 63.4392C350.308 64.0256 351.1 64.9346 351.686 66.1661L362.594 89.9171L373.238 66.1661Z" fill="url(#paint1_linear_2351_113)"/>
<path d="M443.979 62.2076C448.67 62.2076 452.277 63.6444 454.798 66.518C457.32 69.3329 458.581 73.9658 458.581 80.4167V100.737C458.581 102.789 457.965 104.344 456.734 105.399C455.502 106.455 453.919 106.983 451.984 106.983C450.107 106.983 448.524 106.455 447.233 105.399C445.943 104.344 445.298 102.789 445.298 100.737V80.2408C445.298 77.4258 444.8 75.4613 443.803 74.347C442.864 73.1741 441.398 72.5877 439.404 72.5877C436.941 72.5877 434.977 73.438 433.511 75.1387C432.044 76.8394 431.311 79.2145 431.311 82.264V100.737C431.311 102.789 430.696 104.344 429.464 105.399C428.233 106.455 426.649 106.983 424.714 106.983C422.837 106.983 421.254 106.455 419.964 105.399C418.674 104.344 418.029 102.789 418.029 100.737V80.2408C418.029 77.4258 417.53 75.4613 416.533 74.347C415.595 73.1741 414.129 72.5877 412.135 72.5877C409.672 72.5877 407.707 73.438 406.241 75.1387C404.775 76.8394 404.042 79.2145 404.042 82.264V100.737C404.042 102.789 403.397 104.344 402.107 105.399C400.875 106.455 399.321 106.983 397.444 106.983C395.568 106.983 393.984 106.455 392.694 105.399C391.404 104.344 390.759 102.789 390.759 100.737V68.4533C390.759 66.518 391.404 65.0226 392.694 63.967C394.043 62.9114 395.656 62.3836 397.532 62.3836C399.292 62.3836 400.758 62.9114 401.931 63.967C403.104 64.9639 403.69 66.3714 403.69 68.1894V69.069C405.097 66.8405 406.915 65.1399 409.144 63.967C411.431 62.7941 414.011 62.2076 416.885 62.2076C419.993 62.2076 422.603 62.8527 424.714 64.1429C426.884 65.3744 428.555 67.3977 429.728 70.2126C431.077 67.7495 432.983 65.8143 435.446 64.4068C437.968 62.9407 440.812 62.2076 443.979 62.2076Z" fill="url(#paint2_linear_2351_113)"/>
<path d="M495.33 62.2076C499.025 62.2076 502.309 63.1753 505.183 65.1105C508.115 66.9872 510.373 69.6555 511.956 73.1155C513.598 76.5169 514.419 80.446 514.419 84.903C514.419 89.36 513.598 93.2891 511.956 96.6905C510.373 100.033 508.144 102.614 505.271 104.432C502.397 106.25 499.084 107.158 495.33 107.158C492.398 107.158 489.73 106.572 487.325 105.399C484.98 104.168 483.162 102.467 481.872 100.297V116.923C481.872 118.682 481.285 120.09 480.112 121.145C478.939 122.201 477.385 122.729 475.45 122.729C473.397 122.729 471.726 122.171 470.436 121.057C469.204 119.943 468.589 118.477 468.589 116.659V68.6292C468.589 66.7526 469.175 65.2572 470.348 64.1429C471.579 62.97 473.192 62.3836 475.186 62.3836C477.18 62.3836 478.763 62.97 479.936 64.1429C481.109 65.2572 481.696 66.7526 481.696 68.6292V69.3329C482.986 67.1044 484.833 65.3744 487.237 64.1429C489.642 62.8527 492.34 62.2076 495.33 62.2076ZM491.46 97.0424C494.568 97.0424 496.972 96.0161 498.673 93.9635C500.374 91.8523 501.224 88.8322 501.224 84.903C501.224 80.9152 500.374 77.8364 498.673 75.6665C496.972 73.438 494.568 72.3238 491.46 72.3238C488.352 72.3238 485.947 73.4087 484.247 75.5785C482.546 77.6897 481.696 80.7392 481.696 84.7271C481.696 88.6562 482.546 91.7057 484.247 93.8756C485.947 95.9868 488.352 97.0424 491.46 97.0424Z" fill="url(#paint3_linear_2351_113)"/>
<path d="M546.122 97.3063C547.881 97.4235 549.172 97.8634 549.993 98.6257C550.814 99.3881 551.224 100.502 551.224 101.968C551.224 103.669 550.55 104.959 549.201 105.839C547.852 106.719 545.917 107.071 543.395 106.895L540.932 106.719C530.669 105.898 525.538 100.532 525.538 90.6208V73.2035H522.019C520.084 73.2035 518.618 72.7929 517.621 71.9719C516.624 71.0923 516.126 69.8607 516.126 68.2773C516.126 66.6353 516.624 65.4038 517.621 64.5827C518.618 63.7031 520.084 63.2632 522.019 63.2632H525.538V56.4019C525.538 54.4666 526.124 52.9418 527.297 51.8276C528.529 50.7134 530.171 50.1562 532.223 50.1562C534.276 50.1562 535.889 50.7134 537.062 51.8276C538.234 52.9418 538.821 54.4666 538.821 56.4019V63.2632H544.978C548.966 63.2632 550.96 64.9346 550.96 68.2773C550.96 69.8607 550.462 71.0923 549.465 71.9719C548.468 72.7929 546.972 73.2035 544.978 73.2035H538.821V91.5884C538.821 93.3478 539.231 94.6966 540.052 95.6349C540.873 96.5146 542.076 97.013 543.659 97.1303L546.122 97.3063Z" fill="url(#paint4_linear_2351_113)"/>
<path d="M576.886 107.158C572.311 107.158 568.294 106.25 564.834 104.432C561.374 102.555 558.706 99.9452 556.829 96.6025C554.953 93.2012 554.014 89.2133 554.014 84.6391C554.014 80.0648 554.953 76.1063 556.829 72.7636C558.706 69.3623 561.374 66.7526 564.834 64.9346C568.294 63.1166 572.311 62.2076 576.886 62.2076C581.46 62.2076 585.477 63.1166 588.937 64.9346C592.397 66.7526 595.065 69.3623 596.942 72.7636C598.819 76.1063 599.757 80.0648 599.757 84.6391C599.757 89.2133 598.819 93.2012 596.942 96.6025C595.065 99.9452 592.397 102.555 588.937 104.432C585.477 106.25 581.46 107.158 576.886 107.158ZM576.886 97.0424C583.336 97.0424 586.562 92.9079 586.562 84.6391C586.562 80.4753 585.712 77.3672 584.011 75.3146C582.369 73.2621 579.994 72.2358 576.886 72.2358C570.435 72.2358 567.209 76.3702 567.209 84.6391C567.209 92.9079 570.435 97.0424 576.886 97.0424Z" fill="url(#paint5_linear_2351_113)"/>
<path d="M661.06 62.2076C665.751 62.2076 669.358 63.6444 671.88 66.518C674.401 69.3329 675.662 73.9658 675.662 80.4167V100.737C675.662 102.789 675.047 104.344 673.815 105.399C672.583 106.455 671 106.983 669.065 106.983C667.188 106.983 665.605 106.455 664.315 105.399C663.024 104.344 662.379 102.789 662.379 100.737V80.2408C662.379 77.4258 661.881 75.4613 660.884 74.347C659.946 73.1741 658.479 72.5877 656.486 72.5877C654.023 72.5877 652.058 73.438 650.592 75.1387C649.126 76.8394 648.393 79.2145 648.393 82.264V100.737C648.393 102.789 647.777 104.344 646.545 105.399C645.314 106.455 643.73 106.983 641.795 106.983C639.919 106.983 638.335 106.455 637.045 105.399C635.755 104.344 635.11 102.789 635.11 100.737V80.2408C635.11 77.4258 634.611 75.4613 633.614 74.347C632.676 73.1741 631.21 72.5877 629.216 72.5877C626.753 72.5877 624.788 73.438 623.322 75.1387C621.856 76.8394 621.123 79.2145 621.123 82.264V100.737C621.123 102.789 620.478 104.344 619.188 105.399C617.956 106.455 616.402 106.983 614.526 106.983C612.649 106.983 611.066 106.455 609.775 105.399C608.485 104.344 607.84 102.789 607.84 100.737V68.4533C607.84 66.518 608.485 65.0226 609.775 63.967C611.124 62.9114 612.737 62.3836 614.614 62.3836C616.373 62.3836 617.839 62.9114 619.012 63.967C620.185 64.9639 620.771 66.3714 620.771 68.1894V69.069C622.179 66.8405 623.997 65.1399 626.225 63.967C628.512 62.7941 631.093 62.2076 633.966 62.2076C637.074 62.2076 639.684 62.8527 641.795 64.1429C643.965 65.3744 645.636 67.3977 646.809 70.2126C648.158 67.7495 650.064 65.8143 652.527 64.4068C655.049 62.9407 657.893 62.2076 661.06 62.2076Z" fill="url(#paint6_linear_2351_113)"/>
<path d="M702.032 107.158C698.454 107.158 695.346 106.865 692.707 106.279C690.068 105.692 687.752 104.754 685.758 103.464C684.878 102.936 684.204 102.232 683.735 101.353C683.265 100.473 683.031 99.4761 683.031 98.3619C683.031 97.013 683.412 95.8988 684.174 95.0191C684.937 94.0808 685.875 93.6117 686.989 93.6117C687.752 93.6117 688.514 93.7583 689.276 94.0515C690.039 94.2861 690.831 94.5793 691.652 94.9312C693.294 95.6935 694.906 96.3093 696.49 96.7785C698.073 97.189 700.038 97.3942 702.383 97.3942C704.436 97.3942 706.019 97.0717 707.134 96.4266C708.307 95.7815 708.893 94.9018 708.893 93.7876C708.893 92.9666 708.629 92.3215 708.101 91.8523C707.632 91.3245 706.723 90.8554 705.374 90.4449C704.025 90.0344 701.885 89.5359 698.953 88.9494C693.733 87.9525 689.98 86.4571 687.693 84.4632C685.406 82.4692 684.262 79.6836 684.262 76.1063C684.262 73.4674 685.054 71.0923 686.637 68.9811C688.279 66.8699 690.508 65.2278 693.323 64.0549C696.138 62.8234 699.305 62.2076 702.823 62.2076C705.345 62.2076 707.808 62.5302 710.212 63.1753C712.617 63.8204 714.757 64.7294 716.634 65.9022C718.452 67.0165 719.361 68.6585 719.361 70.8284C719.361 72.2358 718.98 73.4087 718.217 74.347C717.455 75.2853 716.517 75.7545 715.402 75.7545C714.054 75.7545 712.441 75.2267 710.564 74.1711C709.098 73.4087 707.749 72.8516 706.518 72.4997C705.345 72.0892 703.938 71.884 702.296 71.884C700.478 71.884 699.041 72.2358 697.985 72.9396C696.93 73.5846 696.402 74.4936 696.402 75.6665C696.402 76.898 697.017 77.8363 698.249 78.4814C699.481 79.1265 701.856 79.7716 705.374 80.4167C709.303 81.1791 712.382 82.1174 714.611 83.2316C716.839 84.2872 718.452 85.636 719.449 87.2781C720.446 88.9201 720.944 91.002 720.944 93.5237C720.944 97.6874 719.214 101.001 715.754 103.464C712.353 105.927 707.779 107.158 702.032 107.158Z" fill="url(#paint7_linear_2351_113)"/>
<path d="M316.886 196.47C310.787 196.47 305.451 195.179 300.877 192.599C296.302 190.019 292.784 186.324 290.321 181.515C287.858 176.706 286.626 171.077 286.626 164.626C286.626 158.175 287.858 152.574 290.321 147.824C292.784 143.015 296.302 139.321 300.877 136.74C305.451 134.16 310.787 132.87 316.886 132.87C324.569 132.87 331.196 134.981 336.767 139.203C337.647 139.907 338.262 140.611 338.614 141.315C338.966 142.018 339.142 142.898 339.142 143.954C339.142 145.478 338.702 146.798 337.823 147.912C337.001 148.968 335.975 149.495 334.744 149.495C333.923 149.495 333.19 149.408 332.545 149.232C331.958 148.997 331.284 148.616 330.521 148.088C328.176 146.563 326.006 145.478 324.012 144.833C322.018 144.13 319.877 143.778 317.59 143.778C311.96 143.778 307.709 145.537 304.835 149.056C302.02 152.516 300.613 157.706 300.613 164.626C300.613 178.583 306.272 185.562 317.59 185.562C319.76 185.562 321.813 185.239 323.748 184.594C325.683 183.89 327.941 182.776 330.521 181.251C331.401 180.724 332.134 180.372 332.72 180.196C333.307 179.961 333.981 179.844 334.744 179.844C335.975 179.844 337.001 180.401 337.823 181.515C338.702 182.571 339.142 183.861 339.142 185.386C339.142 186.441 338.937 187.35 338.526 188.113C338.174 188.817 337.588 189.491 336.767 190.136C331.196 194.358 324.569 196.47 316.886 196.47Z" fill="url(#paint8_linear_2351_113)"/>
<path d="M374.305 151.431C384.333 151.431 389.347 157.5 389.347 169.64V189.96C389.347 191.895 388.732 193.42 387.5 194.534C386.327 195.649 384.715 196.206 382.662 196.206C380.609 196.206 378.997 195.649 377.824 194.534C376.651 193.42 376.065 191.895 376.065 189.96V169.464C376.065 166.884 375.507 164.978 374.393 163.746C373.338 162.456 371.666 161.811 369.379 161.811C366.623 161.811 364.394 162.69 362.694 164.45C361.052 166.209 360.231 168.555 360.231 171.487V189.96C360.231 191.895 359.644 193.42 358.471 194.534C357.298 195.649 355.686 196.206 353.633 196.206C351.581 196.206 349.939 195.649 348.707 194.534C347.534 193.42 346.948 191.895 346.948 189.96V139.291C346.948 137.473 347.563 136.007 348.795 134.893C350.085 133.779 351.756 133.222 353.809 133.222C355.744 133.222 357.298 133.75 358.471 134.805C359.644 135.861 360.231 137.268 360.231 139.027V158.204C361.755 155.976 363.72 154.304 366.124 153.19C368.529 152.017 371.256 151.431 374.305 151.431Z" fill="url(#paint9_linear_2351_113)"/>
<path d="M433.922 182.835C435.095 182.835 436.034 183.304 436.737 184.242C437.5 185.181 437.881 186.383 437.881 187.849C437.881 188.846 437.588 189.784 437.001 190.664C436.415 191.485 435.594 192.189 434.538 192.775C432.544 193.831 430.228 194.71 427.589 195.414C424.95 196.059 422.516 196.382 420.288 196.382C415.596 196.382 411.491 195.473 407.972 193.655C404.512 191.837 401.844 189.256 399.967 185.914C398.091 182.512 397.152 178.524 397.152 173.95C397.152 169.552 398.061 165.652 399.879 162.251C401.697 158.849 404.219 156.21 407.444 154.334C410.67 152.398 414.335 151.431 418.44 151.431C422.369 151.431 425.8 152.31 428.732 154.07C431.723 155.77 434.04 158.233 435.682 161.459C437.324 164.626 438.145 168.35 438.145 172.631C438.145 173.921 437.822 174.918 437.177 175.622C436.591 176.267 435.74 176.589 434.626 176.589H409.996C410.406 180.049 411.462 182.571 413.162 184.154C414.863 185.679 417.297 186.441 420.464 186.441C422.164 186.441 423.689 186.236 425.038 185.826C426.387 185.415 427.882 184.858 429.524 184.154C430.345 183.802 431.137 183.509 431.899 183.275C432.662 182.981 433.336 182.835 433.922 182.835ZM418.792 160.579C416.27 160.579 414.247 161.4 412.722 163.042C411.198 164.626 410.289 166.942 409.996 169.992H426.973C426.797 166.884 426.005 164.538 424.598 162.954C423.249 161.371 421.314 160.579 418.792 160.579Z" fill="url(#paint10_linear_2351_113)"/>
<path d="M466.136 196.382C461.679 196.382 457.779 195.473 454.436 193.655C451.094 191.837 448.513 189.256 446.695 185.914C444.936 182.571 444.056 178.642 444.056 174.126C444.056 169.61 444.995 165.652 446.871 162.251C448.807 158.791 451.504 156.122 454.964 154.246C458.424 152.369 462.412 151.431 466.928 151.431C469.273 151.431 471.619 151.753 473.965 152.398C476.369 153.043 478.51 153.952 480.387 155.125C482.205 156.24 483.114 157.882 483.114 160.051C483.114 161.576 482.762 162.837 482.058 163.834C481.354 164.772 480.416 165.241 479.243 165.241C478.481 165.241 477.748 165.124 477.044 164.89C476.399 164.596 475.519 164.186 474.405 163.658C473.173 163.013 472.059 162.515 471.062 162.163C470.124 161.811 469.039 161.635 467.807 161.635C464.523 161.635 462.002 162.69 460.242 164.802C458.542 166.854 457.691 169.874 457.691 173.862C457.691 177.85 458.542 180.9 460.242 183.011C462.002 185.122 464.523 186.178 467.807 186.178C469.039 186.178 470.124 186.031 471.062 185.738C472 185.386 473.144 184.858 474.493 184.154C475.607 183.626 476.487 183.245 477.132 183.011C477.777 182.717 478.481 182.571 479.243 182.571C480.357 182.571 481.266 183.069 481.97 184.066C482.732 185.063 483.114 186.324 483.114 187.849C483.114 190.019 482.205 191.631 480.387 192.687C478.51 193.86 476.34 194.769 473.877 195.414C471.414 196.059 468.834 196.382 466.136 196.382Z" fill="url(#paint11_linear_2351_113)"/>
<path d="M530.364 185.386C531.713 186.676 532.387 188.142 532.387 189.784C532.387 191.426 531.771 192.892 530.54 194.182C529.367 195.473 527.989 196.118 526.405 196.118C524.881 196.118 523.473 195.502 522.183 194.27L502.918 176.413V189.872C502.918 191.925 502.273 193.479 500.983 194.534C499.752 195.59 498.197 196.118 496.321 196.118C494.386 196.118 492.773 195.59 491.483 194.534C490.251 193.479 489.635 191.925 489.635 189.872V139.467C489.635 137.415 490.251 135.861 491.483 134.805C492.773 133.75 494.386 133.222 496.321 133.222C498.197 133.222 499.752 133.75 500.983 134.805C502.273 135.861 502.918 137.415 502.918 139.467V170.959L520.512 153.63C521.802 152.34 523.239 151.695 524.822 151.695C526.464 151.695 527.901 152.31 529.132 153.542C530.364 154.715 530.98 156.122 530.98 157.764C530.98 159.289 530.305 160.726 528.956 162.075L517.257 173.246L530.364 185.386Z" fill="url(#paint12_linear_2351_113)"/>
<path d="M572.916 182.835C574.089 182.835 575.027 183.304 575.731 184.242C576.494 185.181 576.875 186.383 576.875 187.849C576.875 188.846 576.581 189.784 575.995 190.664C575.409 191.485 574.588 192.189 573.532 192.775C571.538 193.831 569.222 194.71 566.583 195.414C563.944 196.059 561.51 196.382 559.281 196.382C554.59 196.382 550.485 195.473 546.966 193.655C543.506 191.837 540.838 189.256 538.961 185.914C537.085 182.512 536.146 178.524 536.146 173.95C536.146 169.552 537.055 165.652 538.873 162.251C540.691 158.849 543.213 156.21 546.438 154.334C549.664 152.398 553.329 151.431 557.434 151.431C561.363 151.431 564.794 152.31 567.726 154.07C570.717 155.77 573.034 158.233 574.676 161.459C576.318 164.626 577.139 168.35 577.139 172.631C577.139 173.921 576.816 174.918 576.171 175.622C575.585 176.267 574.734 176.589 573.62 176.589H548.989C549.4 180.049 550.455 182.571 552.156 184.154C553.857 185.679 556.291 186.441 559.457 186.441C561.158 186.441 562.683 186.236 564.032 185.826C565.38 185.415 566.876 184.858 568.518 184.154C569.339 183.802 570.131 183.509 570.893 183.275C571.655 182.981 572.33 182.835 572.916 182.835ZM557.786 160.579C555.264 160.579 553.241 161.4 551.716 163.042C550.192 164.626 549.283 166.942 548.989 169.992H565.967C565.791 166.884 564.999 164.538 563.592 162.954C562.243 161.371 560.308 160.579 557.786 160.579Z" fill="url(#paint13_linear_2351_113)"/>
<path d="M610.936 151.607C612.695 151.489 614.073 151.9 615.07 152.838C616.126 153.718 616.653 155.067 616.653 156.885C616.653 158.82 616.184 160.257 615.246 161.195C614.308 162.133 612.636 162.72 610.232 162.954L607.593 163.218C604.367 163.57 602.022 164.626 600.556 166.385C599.148 168.144 598.444 170.402 598.444 173.158V189.96C598.444 192.013 597.799 193.567 596.509 194.622C595.278 195.678 593.724 196.206 591.847 196.206C589.912 196.206 588.299 195.678 587.009 194.622C585.777 193.567 585.161 192.013 585.161 189.96V157.676C585.161 155.741 585.807 154.246 587.097 153.19C588.387 152.134 589.941 151.607 591.759 151.607C593.518 151.607 594.984 152.134 596.157 153.19C597.33 154.187 597.917 155.595 597.917 157.412V159.788C598.972 157.266 600.556 155.331 602.667 153.982C604.837 152.633 607.182 151.871 609.704 151.695L610.936 151.607Z" fill="url(#paint14_linear_2351_113)"/>
<path d="M172.307 125.228C172.307 126.697 172.107 127.965 171.573 129.033C171.039 130.101 170.238 131.036 169.103 131.97C161.359 137.978 152.08 141.049 141.332 141.183C132.788 141.25 125.244 139.581 118.769 135.976C112.294 132.438 107.287 127.298 103.816 120.622C102.28 117.751 101.079 114.681 100.211 111.343C99.2763 107.938 98.7423 104.334 98.4753 100.462C98.4085 99.327 98.3418 98.1921 98.3418 96.9905C98.2083 87.9117 99.8771 80.0346 103.282 73.2922C106.686 66.5499 111.559 61.343 117.901 57.6047C124.243 53.9331 131.72 51.9972 140.264 51.9304C151.079 51.7969 160.358 54.6674 168.235 60.4751C169.503 61.4765 170.371 62.4111 170.838 63.4124C171.372 64.4137 171.573 65.6154 171.639 67.084C171.639 69.2202 171.105 71.0893 169.904 72.6247C168.702 74.1601 167.3 74.9611 165.565 74.9611C164.43 74.9611 163.429 74.8276 162.561 74.5606C161.693 74.2936 160.692 73.7595 159.623 73.0252C156.286 70.889 153.215 69.4204 150.411 68.4858C147.607 67.5512 144.603 67.1507 141.399 67.1507C133.522 67.2175 127.581 69.7542 123.642 74.6941C119.704 79.634 117.768 86.9772 117.901 96.6567C118.101 116.216 126.179 125.962 142.067 125.762C145.071 125.695 148.008 125.228 150.678 124.227C153.415 123.225 156.553 121.69 160.158 119.487C161.359 118.753 162.427 118.219 163.228 117.885C164.029 117.618 164.964 117.418 166.032 117.418C167.768 117.418 169.236 118.152 170.438 119.687C171.639 121.29 172.24 123.092 172.307 125.228Z" fill="white"/>
<g clip-path="url(#clip0_2351_113)">
<path d="M0.401157 132.283C2.47378 38.261 49.4756 -22.6239 136.125 7.98491C142.008 10.0477 164.874 20.4281 185.333 32.5385C201.914 42.32 216.356 53.4989 223.911 59.7538C247.712 79.3833 263.892 103.937 249.651 138.072C204.388 232.627 7.02019 312.809 0.133721 166.752C-0.200573 159.964 0.334298 136.475 0.401157 132.283Z" fill="#A30134"/>
<path d="M171.025 112.055C165.877 112.055 161.598 115.981 161.063 120.971C157.988 122.768 155.246 124.099 152.906 124.964C150.232 125.962 147.29 126.428 144.282 126.494C128.369 126.694 120.279 116.979 120.079 97.4825C119.945 87.8341 121.884 80.5145 125.829 75.5905C129.773 70.6665 135.724 68.1379 143.613 68.0714C146.822 68.0048 149.831 68.4706 152.639 69.4022C155.447 70.3338 158.456 71.7977 161.732 73.8605C163.203 77.5867 166.813 80.1818 171.025 80.1818C176.574 80.1818 181.054 75.7236 181.054 70.2007C181.054 64.6778 176.574 60.2196 171.025 60.2196C170.357 60.2196 169.688 60.2861 169.086 60.4192C161.464 55.229 152.639 52.767 142.41 52.8335C133.852 52.9666 126.363 54.8297 120.012 58.4895C113.593 62.1492 108.713 67.3394 105.37 74.1266C101.96 80.8473 100.355 88.6991 100.422 97.7486C100.422 98.9464 100.489 100.078 100.556 101.209C97.2129 101.209 94.4048 101.209 93.3351 101.209C86.1143 101.209 79.4953 102.473 73.8123 105.002C68.1961 107.464 63.7834 110.924 60.6411 115.182C57.4987 119.441 56.0278 124.099 56.0278 129.489C56.0278 134.28 57.0975 138.339 59.1702 141.599C61.2428 144.86 64.7194 147.721 69.4664 149.983C74.4809 152.445 81.4342 154.575 89.9253 156.305C98.2158 157.968 103.966 159.765 107.442 161.828C112.59 164.822 113.66 168.881 113.66 171.676C113.66 176.666 111.387 180.725 107.175 183.387C103.297 185.849 98.0152 186.98 91.0619 186.98C85.78 186.98 80.7656 186.315 76.286 185.05C73.478 184.252 70.603 183.121 67.795 181.723C68.3298 180.259 68.6641 178.662 68.731 177.065C68.731 176.866 68.731 176.6 68.731 176.4C68.731 167.949 61.8445 161.162 53.4203 161.162C44.9961 161.162 38.1096 167.816 38.1096 176.267C38.1096 184.718 44.9961 191.505 53.4203 191.505C55.6266 191.505 57.6993 191.039 59.5713 190.241C62.7805 192.237 66.7921 193.834 71.4053 195.098C77.6232 196.762 84.376 197.627 91.5967 197.627C99.2187 197.627 106.038 196.429 111.721 194.033C117.271 191.704 121.616 188.444 124.692 184.252C127.701 180.126 129.171 175.468 129.171 170.079C129.171 164.556 127.634 160.231 124.491 156.637C123.689 155.772 122.82 154.907 121.884 154.175C119.544 152.379 116.401 150.649 112.59 149.052C107.91 147.122 102.027 145.325 95.2071 143.862C89.5241 142.597 85.1114 141.333 81.9691 140.202C78.4255 138.804 75.8849 137.274 74.2134 135.344C72.4082 133.282 71.4722 130.686 71.4722 127.626C71.4722 122.702 73.6785 118.576 77.8907 115.781C81.7685 113.186 86.9835 111.922 93.4019 111.922C93.5356 111.922 97.4803 111.922 102.227 111.988C103.096 115.249 104.3 118.376 105.838 121.238C109.381 127.958 114.396 133.015 120.814 136.542C127.299 140.069 134.788 141.799 143.412 141.732C154.177 141.599 163.47 138.538 171.226 132.55C171.493 132.35 171.694 132.15 171.894 131.951C176.976 131.485 180.987 127.226 180.987 122.036C181.054 116.513 176.574 112.055 171.025 112.055ZM53.4203 184.452C48.8739 184.452 45.1966 180.792 45.1966 176.2C45.1966 171.676 48.8739 168.016 53.4203 168.016C56.897 168.016 59.9056 170.212 61.1091 173.273C61.5102 174.204 61.7108 175.202 61.7108 176.267C61.7108 180.659 58.1673 184.318 53.7546 184.452C53.6209 184.452 53.554 184.452 53.4203 184.452Z" fill="white"/>
</g>
<defs>
<linearGradient id="paint0_linear_2351_113" x1="-874.5" y1="204.425" x2="328.958" y2="-499.555" gradientUnits="userSpaceOnUse">
<stop stop-color="#001738"/>
<stop offset="1" stop-color="#A30134"/>
</linearGradient>
<linearGradient id="paint1_linear_2351_113" x1="-874.5" y1="204.425" x2="328.958" y2="-499.555" gradientUnits="userSpaceOnUse">
<stop stop-color="#001738"/>
<stop offset="1" stop-color="#A30134"/>
</linearGradient>
<linearGradient id="paint2_linear_2351_113" x1="-874.5" y1="204.425" x2="328.958" y2="-499.555" gradientUnits="userSpaceOnUse">
<stop stop-color="#001738"/>
<stop offset="1" stop-color="#A30134"/>
</linearGradient>
<linearGradient id="paint3_linear_2351_113" x1="-874.5" y1="204.425" x2="328.958" y2="-499.555" gradientUnits="userSpaceOnUse">
<stop stop-color="#001738"/>
<stop offset="1" stop-color="#A30134"/>
</linearGradient>
<linearGradient id="paint4_linear_2351_113" x1="-874.5" y1="204.425" x2="328.958" y2="-499.555" gradientUnits="userSpaceOnUse">
<stop stop-color="#001738"/>
<stop offset="1" stop-color="#A30134"/>
</linearGradient>
<linearGradient id="paint5_linear_2351_113" x1="-874.5" y1="204.425" x2="328.958" y2="-499.555" gradientUnits="userSpaceOnUse">
<stop stop-color="#001738"/>
<stop offset="1" stop-color="#A30134"/>
</linearGradient>
<linearGradient id="paint6_linear_2351_113" x1="-874.5" y1="204.425" x2="328.958" y2="-499.555" gradientUnits="userSpaceOnUse">
<stop stop-color="#001738"/>
<stop offset="1" stop-color="#A30134"/>
</linearGradient>
<linearGradient id="paint7_linear_2351_113" x1="-874.5" y1="204.425" x2="328.958" y2="-499.555" gradientUnits="userSpaceOnUse">
<stop stop-color="#001738"/>
<stop offset="1" stop-color="#A30134"/>
</linearGradient>
<linearGradient id="paint8_linear_2351_113" x1="-592.744" y1="262.028" x2="345.739" y2="-255.993" gradientUnits="userSpaceOnUse">
<stop stop-color="#001738"/>
<stop offset="1" stop-color="#A30134"/>
</linearGradient>
<linearGradient id="paint9_linear_2351_113" x1="-592.744" y1="262.028" x2="345.739" y2="-255.993" gradientUnits="userSpaceOnUse">
<stop stop-color="#001738"/>
<stop offset="1" stop-color="#A30134"/>
</linearGradient>
<linearGradient id="paint10_linear_2351_113" x1="-592.744" y1="262.028" x2="345.739" y2="-255.993" gradientUnits="userSpaceOnUse">
<stop stop-color="#001738"/>
<stop offset="1" stop-color="#A30134"/>
</linearGradient>
<linearGradient id="paint11_linear_2351_113" x1="-592.744" y1="262.028" x2="345.739" y2="-255.993" gradientUnits="userSpaceOnUse">
<stop stop-color="#001738"/>
<stop offset="1" stop-color="#A30134"/>
</linearGradient>
<linearGradient id="paint12_linear_2351_113" x1="-592.744" y1="262.028" x2="345.739" y2="-255.993" gradientUnits="userSpaceOnUse">
<stop stop-color="#001738"/>
<stop offset="1" stop-color="#A30134"/>
</linearGradient>
<linearGradient id="paint13_linear_2351_113" x1="-592.744" y1="262.028" x2="345.739" y2="-255.993" gradientUnits="userSpaceOnUse">
<stop stop-color="#001738"/>
<stop offset="1" stop-color="#A30134"/>
</linearGradient>
<linearGradient id="paint14_linear_2351_113" x1="-592.744" y1="262.028" x2="345.739" y2="-255.993" gradientUnits="userSpaceOnUse">
<stop stop-color="#001738"/>
<stop offset="1" stop-color="#A30134"/>
</linearGradient>
<clipPath id="clip0_2351_113">
<rect width="255" height="247" fill="white"/>
</clipPath>
</defs>
</svg>
